<svg width="298" height="86" viewBox="0 0 298 86" fill="none" xmlns="http://www.w3.org/2000/svg">
<path d="M0 67.6875V2.39062C0 1.76562 0.3125 1.4375 0.9375 1.40625H7.6875C9.53125 1.40625 10.9688 2.375 12 4.3125L36.75 51.4219L61.4531 4.3125C62.4844 2.40625 63.9219 1.4375 65.7656 1.40625H72.4688C73.0938 1.40625 73.4219 1.73438 73.4531 2.39062V67.6875C73.4531 68.3125 73.125 68.625 72.4688 68.625H65.7656C65.1406 68.625 64.8125 68.3125 64.7812 67.6875V15.8438L42.7031 57.5625C41.6719 59.4688 40.2344 60.4375 38.3906 60.4688H35.0156C33.1719 60.4688 31.7344 59.5 30.7031 57.5625L8.625 15.8438V67.6875C8.625 68.3125 8.3125 68.625 7.6875 68.625H0.9375C0.3125 68.625 0 68.3125 0 67.6875Z" fill="black"/>
<path d="M80.2312 18.2344C80.1687 18.1094 80.1375 17.9844 80.1375 17.8594C80.1375 17.4531 80.4187 17.25 80.9812 17.25H87.45C88.2 17.25 88.6687 17.5781 88.8562 18.2344L99.5437 48.9375C100.95 52.9062 102.559 55.75 104.372 57.4688C106.184 59.1562 108.669 60 111.825 60L122.841 18.2344C123.028 17.5781 123.512 17.25 124.294 17.25H130.716C131.309 17.25 131.606 17.4531 131.606 17.8594C131.606 17.9844 131.575 18.1094 131.512 18.2344L118.716 66.7031C116.934 73.4219 114.559 78.2969 111.591 81.3281C108.653 84.3906 104.794 85.9219 100.012 85.9219C96.6687 85.9219 93.5906 85.4375 90.7781 84.4688L89.4656 84C88.8094 83.6562 88.4812 83.2344 88.4812 82.7344V78.0469C88.4812 77.2656 88.8094 77 89.4656 77.25C92.6531 78.5312 95.7781 79.1719 98.8406 79.1719C101.934 79.1719 104.294 78.2812 105.919 76.5C107.544 74.7188 108.934 71.4531 110.091 66.7031C105.091 66.7031 101.216 65.3906 98.4656 62.7656C95.7156 60.1406 93.1844 55.5 90.8719 48.8438L80.2312 18.2344Z" fill="black"/>
<path d="M133.603 51.2344C133.603 50.6719 133.931 50.3906 134.587 50.3906H140.634C141.197 50.3906 141.587 50.7031 141.806 51.3281C144.494 59.3281 151.337 63.3281 162.337 63.3281C168.087 63.3281 172.478 62.3125 175.509 60.2812C178.572 58.2188 180.103 55.6719 180.103 52.6406C180.103 49.6094 179.134 47.1719 177.197 45.3281C175.291 43.4531 172.291 41.9375 168.197 40.7812L151.369 36C140.494 32.875 135.056 26.9531 135.056 18.2344C135.056 12.8594 137.337 8.48438 141.9 5.10938C146.494 1.70312 152.634 0 160.322 0C168.009 0 174.212 1.65625 178.931 4.96875C183.681 8.25 186.666 12.7656 187.884 18.5156C188.009 19.2969 187.681 19.6875 186.9 19.6875H180.853C180.291 19.6875 179.9 19.3594 179.681 18.7031C176.994 10.7031 170.603 6.70312 160.509 6.70312C155.197 6.70312 151.056 7.73438 148.087 9.79688C145.15 11.8281 143.681 14.3906 143.681 17.4844C143.681 20.5469 144.634 22.9688 146.541 24.75C148.478 26.5312 151.525 28.0312 155.681 29.25L172.509 34.0781C183.322 37.1406 188.728 43.0625 188.728 51.8438C188.728 57.2812 186.369 61.6875 181.65 65.0625C176.962 68.4062 170.525 70.0781 162.337 70.0781C154.15 70.0781 147.619 68.4375 142.744 65.1562C140.306 63.5312 138.166 61.4688 136.322 58.9688C134.509 56.4375 133.603 53.8594 133.603 51.2344Z" fill="black"/>
<path d="M195.331 47.4844V18.2344C195.331 17.6094 195.644 17.2812 196.269 17.25H203.019C203.644 17.25 203.956 17.5781 203.956 18.2344V47.4844C203.956 52.5469 205.269 56.4531 207.894 59.2031C210.519 61.9531 213.847 63.3281 217.878 63.3281C219.722 63.3281 221.534 62.9844 223.316 62.2969C225.128 61.5781 226.628 60.75 227.816 59.8125C229.003 58.8438 230.066 57.8594 231.003 56.8594C232.816 54.8906 233.722 53.6875 233.722 53.25V18.2344C233.722 17.6094 234.034 17.2812 234.659 17.25H241.409C242.034 17.25 242.347 17.5781 242.347 18.2344V67.6875C242.347 68.3125 242.034 68.625 241.409 68.625H236.113C235.488 68.625 235.144 68.3125 235.081 67.6875L234.191 62.3906C233.784 63.0156 232.956 63.8438 231.706 64.875C230.488 65.9062 229.284 66.75 228.097 67.4062C224.972 69.1875 221.409 70.0781 217.409 70.0781C210.941 70.0781 205.644 68.0781 201.519 64.0781C197.394 60.0469 195.331 54.5156 195.331 47.4844Z" fill="black"/>
<path d="M249.969 64.3125V2.39062C249.969 1.76562 250.281 1.4375 250.906 1.40625H257.656C258.281 1.40625 258.594 1.73438 258.594 2.39062V18.7031C262.75 16.7969 267.547 15.8438 272.984 15.8438C280.203 15.8438 286.094 18.1875 290.656 22.875C295.219 27.5312 297.5 34.2188 297.5 42.9375C297.5 51.625 295.203 58.3281 290.609 63.0469C286.047 67.7344 280.016 70.0781 272.516 70.0781C268.422 70.0781 264.484 69.5938 260.703 68.625C256.922 67.6562 254.172 66.7031 252.453 65.7656L249.969 64.3125ZM258.594 60.4688C258.594 60.5312 259.141 60.7969 260.234 61.2656C261.328 61.7031 262.953 62.1562 265.109 62.625C267.297 63.0938 269.453 63.3281 271.578 63.3281C276.891 63.3281 281.094 61.625 284.188 58.2188C287.281 54.7812 288.828 49.6719 288.828 42.8906C288.828 36.1094 287.297 31.0312 284.234 27.6562C281.172 24.25 277.172 22.5469 272.234 22.5469C267.297 22.5469 262.75 23.5 258.594 25.4062V60.4688Z" fill="black"/>
</svg>
